<svg version="1.2" xmlns="http://www.w3.org/2000/svg" viewBox="0 0 159 32" width="144" height="32">
    <style>
        .s0 { fill: #fddb32 }
        .s1 { fill: #191e3b }
    </style>
    <g id="Layer">
        <path id="Layer" class="s0" d="m0 6c0-3.3 2.7-6 6-6h16.6c3.3 0 6 2.7 6 6v16.5c0 3.3-2.7 6-6 6h-16.6c-3.3 0-6-2.7-6-6z"/>
        <g id="Layer">
            <g id="Layer">
                <g id="Layer">
                    <path id="Layer" class="s1" d="m5.2 19.8h3.5v3.5h-3.5z"/>
                </g>
            </g>
        </g>
        <path id="Layer" class="s1" d="m23.4 20.6v-13.7c0-1-0.8-1.8-1.8-1.8h-13.7c-0.3 0-0.4 0.1-0.6 0.3l-2.7 2.7c-0.2 0.2-0.1 0.5 0.2 0.5h12.4l-7.7 7.7c-0.1 0.1-0.2 0.2-0.2 0.5v2c0 0.2 0.2 0.4 0.4 0.4h2c0.3 0 0.4-0.1 0.5-0.2l7.7-7.7v12.4c0 0.3 0.3 0.4 0.5 0.2l2.7-2.7c0.2-0.2 0.3-0.4 0.3-0.6z"/>
    </g>
    <g id="Layer">
        <g id="Layer">
            <path id="Layer" class="s1" d="m64.9 17.1l5.6-7.8c0.1-0.2 0-0.4-0.3-0.4h-3c-0.2 0-0.4 0-0.5 0.2l-3.7 5.4-3.8-5.4c-0.1-0.2-0.3-0.2-0.4-0.2h-3.3c-0.2 0-0.3 0.1-0.3 0.2 0 0.1 0 0.2 0.1 0.2l5.6 7.8-6.2 8.4c-0.1 0.3 0 0.5 0.2 0.5h3.1c0.2 0 0.4 0 0.5-0.2l4.2-6.2 4.4 6.2c0.1 0.2 0.3 0.2 0.5 0.2h3.2c0.2 0 0.3-0.1 0.3-0.3q0 0-0.1-0.2z"/>
            <path id="Layer" class="s1" d="m52.4 2.4c0.2 0 0.4 0.2 0.4 0.4v2.3c0 0.3-0.2 0.4-0.4 0.4h-10.9v6.8h9.8c0.2 0 0.4 0.2 0.4 0.4v2.3c0 0.2-0.2 0.4-0.4 0.4h-9.8v7.5h10.9c0.2 0 0.4 0.1 0.4 0.4v2.3c0 0.3-0.2 0.4-0.4 0.4h-12.8c-1 0-1.7-0.7-1.7-1.7v-20.1c0-1 0.7-1.8 1.7-1.8z"/>
            <path id="Layer" fill-rule="evenodd" class="s1" d="m91.1 17.4c0 5.1-3.1 9.1-8.5 9.1-3.3 0-5-1.3-6-2.7v7.7c0 0.2-0.2 0.4-0.4 0.4h-2.7c-0.3 0-0.4-0.2-0.4-0.4v-22.2c0-0.3 0.1-0.4 0.4-0.4h2.6c0.3 0 0.4 0.1 0.4 0.4v1.8c1.1-1.3 2.8-2.8 6.1-2.8 5.4 0 8.5 4.1 8.5 9.1zm-3.5 0.1c0-4-2.3-6.3-5.6-6.3-3.3 0-5.6 2.3-5.6 6.3 0 3.9 2.3 6.1 5.6 6.1 3.3 0 5.6-2.2 5.6-6.1z"/>
            <path id="Layer" fill-rule="evenodd" class="s1" d="m110.2 17.3v0.7c0 0.2-0.2 0.4-0.4 0.4h-13c0.3 3.1 2 5.2 5.5 5.2 2.4 0 4-1.1 5.3-2.5q0.2-0.2 0.3-0.2 0.2 0 0.3 0.1l1.6 1.6q0.1 0.1 0.1 0.3 0 0.1-0.1 0.3c-1.7 1.9-4.4 3.3-7.6 3.3-5.5 0-8.9-3.5-8.9-9.2 0-5.6 3.8-9 8.5-9 5.3 0 8.4 3.9 8.4 9zm-3.6-1.6c-0.2-2.9-1.8-4.6-4.8-4.6-3 0-4.4 1.8-4.8 4.6z"/>
            <path id="Layer" fill-rule="evenodd" class="s1" d="m158.9 9.3v16.3c0 0.2-0.1 0.4-0.4 0.4h-2.6c-0.3 0-0.4-0.2-0.4-0.4v-1.8c-1.1 1.3-2.8 2.8-6.2 2.8-5.3 0-8.4-4.1-8.4-9.1 0-5.1 3.1-9.1 8.4-9.1 3.4 0 5.1 1.4 6.2 2.8v-1.9c0-0.3 0.1-0.4 0.4-0.4h2.6c0.3 0 0.4 0.1 0.4 0.4zm-3.3 8.1c0-3.9-2.3-6.1-5.6-6.1-3.3 0-5.6 2.2-5.6 6.1 0 4 2.3 6.3 5.6 6.3 3.3 0 5.6-2.3 5.6-6.3z"/>
            <path id="Layer" fill-rule="evenodd" class="s1" d="m130.5 2.8v22.8c0 0.2-0.2 0.4-0.4 0.4h-2.7c-0.2 0-0.4-0.1-0.4-0.4v-1.8c-1 1.3-2.8 2.8-6.1 2.8-5.3 0-8.5-4.1-8.5-9.1 0-5.1 3.2-9.1 8.5-9.1 3.3 0 5.1 1.4 6.1 2.8v-8.4c0-0.2 0.1-0.4 0.4-0.4h2.7c0.2 0 0.4 0.2 0.4 0.4zm-3.4 14.6c0-3.9-2.3-6.1-5.6-6.1-3.3 0-5.5 2.2-5.5 6.1 0 4 2.2 6.3 5.5 6.3 3.3 0 5.6-2.3 5.6-6.3z"/>
            <path id="Layer" class="s1" d="m134.3 2.4h3.5v3.6h-3.5z"/>
            <path id="Layer" class="s1" d="m134.3 8.9h3.5v17.1h-3.5z"/>
        </g>
    </g>
</svg>